<?xml version="1.0" encoding="UTF-8" standalone="no"?>
<svg
   xmlns:dc="http://purl.org/dc/elements/1.1/"
   xmlns:cc="http://creativecommons.org/ns#"
   xmlns:rdf="http://www.w3.org/1999/02/22-rdf-syntax-ns#"
   xmlns:svg="http://www.w3.org/2000/svg"
   xmlns="http://www.w3.org/2000/svg"
   xmlns:sodipodi="http://sodipodi.sourceforge.net/DTD/sodipodi-0.dtd"
   xmlns:inkscape="http://www.inkscape.org/namespaces/inkscape"
   inkscape:version="1.0.1 (0767f8302a, 2020-10-17)"
   sodipodi:docname="Portrait.svg"
   id="svg8"
   version="1.1"
   viewBox="0 0 297 210"
   height="210mm"
   width="297mm">
  <defs
     id="defs2">
    <inkscape:path-effect
       hide_knots="false"
       only_selected="false"
       apply_with_radius="true"
       apply_no_radius="true"
       use_knot_distance="true"
       flexible="false"
       chamfer_steps="1"
       radius="24"
       mode="F"
       method="auto"
       unit="px"
       satellites_param="F,0,0,1,0,6.35,0,1 @ F,0,0,1,0,6.35,0,1 @ F,0,0,1,0,6.35,0,1 @ F,0,0,1,0,6.35,0,1 @ F,0,0,1,0,6.35,0,1 @ F,0,0,1,0,6.35,0,1 @ F,0,0,1,0,6.35,0,1 @ F,0,0,1,0,6.35,0,1"
       lpeversion="1"
       is_visible="true"
       id="path-effect1057"
       effect="fillet_chamfer" />
  </defs>
  <sodipodi:namedview
     inkscape:window-maximized="1"
     inkscape:window-y="27"
     inkscape:window-x="72"
     inkscape:window-height="1016"
     inkscape:window-width="1848"
     inkscape:object-paths="true"
     inkscape:snap-midpoints="true"
     inkscape:snap-object-midpoints="true"
     inkscape:snap-global="true"
     inkscape:guide-bbox="true"
     showguides="false"
     showgrid="false"
     inkscape:document-rotation="0"
     inkscape:current-layer="layer2"
     inkscape:document-units="mm"
     inkscape:cy="465.15854"
     inkscape:cx="616.43062"
     inkscape:zoom="0.59221645"
     inkscape:pageshadow="2"
     inkscape:pageopacity="0.0"
     borderopacity="1.0"
     bordercolor="#666666"
     pagecolor="#ffffff"
     id="base">
    <sodipodi:guide
       id="guide111"
       orientation="1,0"
       position="117.12841,122.95533" />
    <sodipodi:guide
       id="guide117"
       orientation="1,0"
       position="135.72319,109.40195" />
    <sodipodi:guide
       id="guide119"
       orientation="1,0"
       position="98.420147,114.20181" />
    <sodipodi:guide
       id="guide131"
       orientation="1,0"
       position="114.0755,80.543642" />
    <sodipodi:guide
       id="guide133"
       orientation="1,0"
       position="120.1813,80.543642" />
    <sodipodi:guide
       id="guide137"
       orientation="0,-1"
       position="133.24854,144.42875" />
    <sodipodi:guide
       id="guide139"
       orientation="0,-1"
       position="132.57839,148.67304" />
    <sodipodi:guide
       id="guide145"
       orientation="0,-1"
       position="117.1284,80.543642" />
    <sodipodi:guide
       id="guide147"
       orientation="1,0"
       position="151.78941,119.63312" />
    <sodipodi:guide
       id="guide149"
       orientation="1,0"
       position="83.098838,110.47438" />
    <sodipodi:guide
       id="guide208"
       orientation="0,-1"
       position="114.0755,65.127431" />
  </sodipodi:namedview>
  <metadata
     id="metadata5">
    <rdf:RDF>
      <cc:Work
         rdf:about="">
        <dc:format>image/svg+xml</dc:format>
        <dc:type
           rdf:resource="http://purl.org/dc/dcmitype/StillImage" />
        <dc:title></dc:title>
      </cc:Work>
    </rdf:RDF>
  </metadata>
  <g
     inkscape:label="Portrait"
     id="layer2"
     inkscape:groupmode="layer">
    <g
       id="g1010"
       transform="matrix(0.57630244,0,0,0.57630244,66.296414,122.00451)">
      <rect
         style="fill:#000000;fill-opacity:1;stroke-width:2.33594;paint-order:markers stroke fill"
         id="rect939"
         width="502.64499"
         height="171.192"
         x="-108.68283"
         y="-115.10223"
         ry="23.420666" />
      <g
         id="g999"
         transform="translate(49.370609)">
        <g
           id="g984"
           transform="translate(-146.80104,-178.00623)">
          <g
             id="g1045"
             transform="translate(-12.34243,-21.78632)">
            <path
               transform="scale(0.26458333)"
               d="m 437.93359,604.98828 c -3.2517,0.14655 -6.10574,0.62263 -8.5625,1.25781 -2.45675,0.63519 -4.51677,1.43023 -6.18164,2.2168 0.13001,2.42912 -0.0448,5.02305 -0.45117,7.70313 -0.40635,2.68007 -1.04378,5.44618 -1.83789,8.21875 -0.7941,2.77256 -1.74604,5.5512 -2.7793,8.25781 -1.03325,2.70661 -2.14767,5.34202 -3.27148,7.82422 -2.24762,4.96439 -4.52788,9.32148 -6.24609,12.4375 -1.71822,3.11601 -2.875,4.99023 -2.875,4.99023 -6.92978,1.10042 -13.57451,1.84123 -19.89844,2.29492 -6.32393,0.4537 -12.32703,0.61982 -17.9707,0.57227 -5.6437,-0.0476 -10.9293,-0.30958 -15.81836,-0.71289 -4.88907,-0.40332 -9.38137,-0.94694 -13.44141,-1.56055 -4.06004,-0.6136 -7.68713,-1.29619 -10.84375,-1.97461 -3.15662,-0.67842 -5.8427,-1.35341 -8.02148,-1.95117 -4.35762,-1.19551 -6.68555,-2.08398 -6.68555,-2.08398 l 58.93359,165.625 59.16992,35.52539 v -35.52539 h -11.53906 v -15.28125 h 23.07617 23.07813 v 15.28125 h -11.53906 v 35.52539 l 58.74023,-35.52539 59.45508,-165.625 c 0,0 -2.32796,0.88847 -6.68555,2.08398 -2.17879,0.59776 -4.86488,1.27275 -8.02148,1.95117 -3.15661,0.67842 -6.78372,1.36101 -10.84375,1.97461 -4.06003,0.61361 -8.55235,1.15723 -13.44141,1.56055 -4.88906,0.40331 -10.17466,0.66534 -15.81836,0.71289 -5.6437,0.0476 -11.64675,-0.11857 -17.9707,-0.57227 -6.32395,-0.45369 -12.96863,-1.1945 -19.89844,-2.29492 0,0 -1.12104,-1.81478 -2.79492,-4.8418 -1.67388,-3.02701 -3.90064,-7.26705 -6.11524,-12.11328 -1.10729,-2.42311 -2.21218,-4.99699 -3.24218,-7.64843 -1.03001,-2.65145 -1.98581,-5.38057 -2.79688,-8.10938 -0.81107,-2.72881 -1.47725,-5.45809 -1.92773,-8.11328 -0.45049,-2.65519 -0.68456,-5.23542 -0.63281,-7.66602 -2.42539,-0.92123 -4.74969,-1.67578 -6.97461,-2.28515 -2.22493,-0.60938 -4.35015,-1.07439 -6.375,-1.41407 -2.02486,-0.33965 -3.95025,-0.55389 -5.77539,-0.66601 -1.82517,-0.11212 -3.54993,-0.1221 -5.17579,-0.0488 z m 4.75586,123.20899 70.2793,16.04101 v 27.43945 l -70.2793,-17.82617 -70.70703,17.82617 v -27.43945 z"
               style="fill:#ffffff;stroke:#000000;stroke-width:0.999999px;stroke-linecap:butt;stroke-linejoin:miter;stroke-opacity:1"
               id="path187" />
            <path
               transform="scale(0.26458333)"
               d="m 371.98242,456.60547 -57.9082,104 -0.42969,38.41992 c 0.21493,-0.0651 0.43168,-0.14891 0.64649,-0.21289 5.29646,-1.57748 10.55382,-2.81254 15.73242,-3.75781 5.1786,-0.94528 10.27992,-1.60021 15.26172,-2.01367 4.98179,-0.41347 9.84472,-0.58631 14.55078,-0.56836 6.36575,0.0243 12.44044,0.39746 18.1289,0.99414 5.68847,0.59668 10.99055,1.41693 15.8086,2.33789 4.81805,0.92096 9.15371,1.94235 12.9082,2.93945 3.75449,0.9971 6.92798,1.96982 9.42578,2.79492 h 53.25781 c 2.1722,-0.71754 4.85655,-1.54804 7.99024,-2.4082 3.13369,-0.86016 6.71654,-1.75049 10.68359,-2.58984 3.96705,-0.83936 8.31797,-1.62613 12.99024,-2.28125 4.67226,-0.65513 9.66667,-1.17886 14.91601,-1.48633 5.24935,-0.30747 10.75485,-0.3989 16.45313,-0.19532 2.84914,0.10181 5.74625,0.27689 8.68359,0.53711 2.93735,0.26023 5.91429,0.60586 8.92383,1.04493 3.00954,0.43906 6.05148,0.97104 9.11719,1.60937 3.0657,0.63834 6.15585,1.3822 9.26172,2.24024 1.58315,0.43736 3.17908,0.99568 4.76953,1.49414 l 0.53711,-38.89844 -60.72266,-104 -69.08594,20.83984 z m -38.30469,104 h 76.60938 v 16.04101 h -76.60938 z m 140.98633,0 h 76.60938 v 16.04101 h -76.60938 z"
               style="fill:#ffffff;stroke:#000000;stroke-width:0.999999px;stroke-linecap:butt;stroke-linejoin:miter;stroke-opacity:1"
               id="path175" />
          </g>
          <path
             style="fill:none;stroke:#ffffff;stroke-width:0.75;stroke-linecap:butt;stroke-linejoin:round;stroke-miterlimit:4;stroke-dasharray:none;stroke-opacity:1"
             d="m 137.57859,157.01085 -12.66505,50.91748 a 8.1229696,8.1229696 141.98406 0 1 -7.88278,6.16223 H 92.427716 a 8.1057866,8.1057866 38.074828 0 1 -7.870105,-6.16537 l -12.552434,-50.9112 a 49.950333,49.950333 83.394594 0 1 -1.449228,-12.51497 l 0.129581,-11.60878 a 1137.7853,1137.7853 90.319765 0 0 0.07088,-12.6996 v -30.9312 a 6.35,6.35 135 0 1 6.35,-6.35 h 55.99057 a 6.35,6.35 45 0 1 6.35,6.35 v 30.9312 a 919.89529,919.89529 90.395504 0 1 -0.0877,12.69939 l -0.16029,11.6092 a 54.977643,54.977643 97.379562 0 1 -1.62044,12.51162 z"
             id="path210"
             sodipodi:nodetypes="ccccccccc"
             inkscape:path-effect="#path-effect1057"
             inkscape:original-d="m 139.11137,150.84862 -15.73061,63.24194 H 86.077716 l -15.592644,-63.24194 0.271335,-24.30798 v -43.6312 h 68.690573 v 43.6312 z" />
        </g>
        <text
           xml:space="preserve"
           style="font-size:70.5556px;line-height:1.25;font-family:'Times New Roman';-inkscape-font-specification:'Times New Roman, ';letter-spacing:1.32292px;stroke-width:0.264583"
           x="16.050222"
           y="-2.5539863"
           id="text933"><tspan
             sodipodi:role="line"
             id="tspan931"
             x="16.050222"
             y="-2.5539863"
             style="font-style:normal;font-variant:normal;font-weight:normal;font-stretch:normal;font-size:70.5556px;font-family:Ubuntu;-inkscape-font-specification:Ubuntu;fill:#ffffff;fill-opacity:1;stroke-width:0.264583">Prahlad</tspan></text>
      </g>
    </g>
  </g>
</svg>
